<svg width="68" height="29" viewBox="0 0 68 29" fill="none" xmlns="http://www.w3.org/2000/svg">
<path d="M8.6 28.16C7.05333 28.16 5.57333 27.9733 4.16 27.6C2.74667 27.2 1.50667 26.7867 0.44 26.36L1.24 18.64L4.6 18.92L4.92 23.36C5.26667 23.44 5.73333 23.56 6.32 23.72C6.93333 23.88 7.61333 23.96 8.36 23.96C9.21333 23.96 9.98667 23.8533 10.68 23.64C11.4 23.4 11.9733 23.04 12.4 22.56C12.8533 22.08 13.08 21.4533 13.08 20.68C13.08 19.96 12.8933 19.3733 12.52 18.92C12.1467 18.44 11.5867 18 10.84 17.6C10.12 17.1733 9.18667 16.7067 8.04 16.2C7 15.72 6.04 15.24 5.16 14.76C4.28 14.2533 3.50667 13.6933 2.84 13.08C2.2 12.4667 1.69333 11.7467 1.32 10.92C0.946667 10.0667 0.76 9.04 0.76 7.84C0.76 6.29333 1.17333 4.96 2 3.84C2.85333 2.72 3.98667 1.85333 5.4 1.24C6.84 0.626665 8.41333 0.319999 10.12 0.319999C11.5067 0.319999 12.8533 0.426666 14.16 0.639999C15.4933 0.853332 16.68 1.10666 17.72 1.4L18.32 9H14.96L13 4.76C12.6533 4.70667 12.2267 4.65333 11.72 4.6C11.2133 4.54667 10.7333 4.52 10.28 4.52C9.34667 4.52 8.57333 4.66667 7.96 4.96C7.37333 5.22667 6.93333 5.58667 6.64 6.04C6.34667 6.49333 6.2 7 6.2 7.56C6.2 8.09333 6.36 8.57333 6.68 9C7.02667 9.4 7.46667 9.77333 8 10.12C8.56 10.44 9.14667 10.7467 9.76 11.04C10.4 11.3067 11.0133 11.5867 11.6 11.88C13.1733 12.6267 14.4667 13.3733 15.48 14.12C16.52 14.8667 17.2933 15.7067 17.8 16.64C18.3067 17.5733 18.56 18.68 18.56 19.96C18.56 21.4533 18.2667 22.72 17.68 23.76C17.12 24.8 16.36 25.6533 15.4 26.32C14.44 26.96 13.36 27.4267 12.16 27.72C10.9867 28.0133 9.8 28.16 8.6 28.16ZM22.1728 28L21.6128 24.56L24.4128 24V4.28L21.6928 4V0.359998H31.6928C33.5861 0.359998 35.2395 0.573332 36.6528 1C38.0661 1.42667 39.2395 2.04 40.1728 2.84C41.1061 3.64 41.7995 4.61333 42.2528 5.76C42.7328 6.88 42.9728 8.14667 42.9728 9.56C42.9728 11.4533 42.5461 13.12 41.6928 14.56C40.8661 15.9733 39.5995 17.08 37.8928 17.88C36.2128 18.68 34.0928 19.08 31.5328 19.08H29.6528V23.76L35.7328 24.68L35.4928 28H22.1728ZM29.6528 14.88H30.0128C32.0928 14.8533 33.6661 14.6267 34.7328 14.2C35.7995 13.7467 36.5195 13.12 36.8928 12.32C37.2928 11.4933 37.4928 10.5333 37.4928 9.44C37.4928 7.94667 37.0395 6.76 36.1328 5.88C35.2261 5 33.7995 4.56 31.8528 4.56H29.6528V14.88ZM49.0513 28L48.6513 24.8L53.2513 23.92V4.56H48.7313L47.0113 8.56H43.9313L44.6913 0.359998H66.8913L67.7713 8.52H64.7313L62.9713 4.56H58.4113V23.92L63.0513 24.8L62.6513 28H49.0513Z" fill="#F3B618"/>
</svg>
